**ABCDEFGHIJKLMNOPQRSTUVWXYZabcdefghijklmnopqrstuvwxyz**************************
**PARASOLID !"#$%&'()*+,-./:;<=>?@[\]^_`{|}~0123456789**************************
**PART1;
MC=AMD64;
MC_MODEL=Intel64 Family 6 Model 26 Stepping 4, GenuineIntel;
MC_ID=unknown;
OS=Windows_NT;
OS_RELEASE=unknown;
FRU=Parasolid Version 29.0, build 201,  4-17-2017;
APPL=SOLIDWORKS 2017-2017207;
SITE=;
USER=unknown;
FORMAT=text;
GUISE=transmit;
KEY=Sfu1204 nut housing;
FILE=Sfu1204 nut housing.x_t;
DATE=Fri Nov 24 21:35:20 2017;
**PART2;
SCH=SCH_2900201_28101;
USFLD_SIZE=0;
**PART3;
**END_OF_HEADER*****************************************************************
T51 : TRANSMIT FILE created by modeller version 290020123 SCH_2900201_28101_1300
6203 0 12 33 CCCCCCI4 mesh1006 0 I8 polyline1008 0 CCCCCCCDI5 owner1040 0 CCCCCC
I13 boundary_mesh1006 0 I17 boundary_polyline1008 0 CCCA16 index_map_offset0 0 1
 dA9 index_map82 0 A17 node_id_index_map82 0 A20 schema_embedding_map82 0 A5 chi
ld12 0 A14 lowest_node_id0 0 1 dZ1 922 0 2 0 0 0 0 0 0 1e3 1e-8 0 3 0 1 0 1 1 4
 5 6 7 0 0 8 9 10 0 0 0 0 0 0 70 11 CI9 list_type0 0 1 uI10 notransmit0 0 1 lCCC
DCCDI12 finger_index0 0 1 dI12 finger_block1012 0 CZ2 0 4 T1 0 0 2 20 1 11 11 13
 255 4 94 0 1 0 12 0 0 13 0 50 255 5 89 0 14 15 0 0 +-.02 -.015 -.015 -1 0 0 0 0
 1 38 255 6 661 0 16 17 0 0 +18 19 20 21 21 29 255 7 141 0 10 22 0 .00625 -.015
 .015 19 8 CCCCCCCA5 owner12 0 Z8 28 0 1 13 0 23 V0 16 255 9 74 0 ?24 0 25 26 0
 0 1 18 255 10 139 0 27 0 28 7 ?1 17 255 27 0 29 30 31 10 32 33 0 34 +18 28 25 0
 35 10 36 37 ?1 17 35 0 38 39 40 28 24 9 0 41 -18 36 22 0 42 28 43 44 ?1 29 37 2
7 0 28 44 45 -.02 .015 -.015 29 44 24 0 36 46 37 .02 .015 -.015 29 45 73 0 47 37
 48 -.02 -.015 .015 18 47 64 0 49 50 51 45 ?1 29 48 72 0 50 45 52 .02 -.015 .015
 18 50 63 0 53 54 47 48 ?1 29 52 71 0 54 48 22 .02 .015 .015 18 54 62 0 55 56 50
 52 ?1 29 22 70 0 56 52 7 -.02 .015 .015 18 56 61 0 24 57 54 22 ?1 17 24 0 58 59
 60 56 35 9 0 40 +18 57 16 0 61 43 56 62 ?1 17 61 0 63 64 65 57 49 66 0 67 -18 4
3 19 0 68 36 57 46 ?1 29 62 18 0 57 69 46 -.02 -.015 -.015 29 69 263 0 70 71 62
 -.00625 -.015 .015 29 46 21 0 43 62 44 .02 -.015 -.015 18 70 216 0 72 73 74 69
 ?1 29 71 264 0 74 75 69 -.00625 -.00935414346693485 .015 18 74 218 0 76 70 77 7
1 ?1 29 75 265 0 77 78 71 .00625 -.00935414346693486 .015 18 77 220 0 79 74 80 7
5 ?1 29 78 267 0 51 81 75 -.00625 -.015 -.015 18 51 213 0 82 47 83 78 ?1 29 81 2
68 0 83 84 78 -.00625 -.00935414346693485 -.015 18 83 215 0 85 51 86 81 ?1 29 84
 269 0 86 87 81 .00625 -.00935414346693486 -.015 18 86 217 0 88 83 73 84 ?1 29 8
7 270 0 73 89 84 .00625 -.015 -.015 18 73 219 0 31 86 70 87 ?1 29 89 338 0 80 90
 87 .01131370849898474 .01131370849898478 -.000991420021395475 18 80 316 0 91 77
 92 89 ?1 29 90 377 0 92 93 89 .016 0 -.000991420021395475 18 92 355 0 94 80 95
 90 ?1 29 93 416 0 95 96 90 .01131370849898474 -.01131370849898478 -.00099142002
1395475 18 95 394 0 97 92 98 93 ?1 29 96 455 0 98 99 93 -.01131370849898474 -.01
131370849898478 -.000991420021395475 18 98 433 0 100 95 101 96 ?1 29 99 494 0 10
1 102 96 -.016 0 -.000991420021395475 18 101 472 0 103 98 104 99 ?1 29 102 533 0
 104 105 99 -.01131370849898474 .01131370849898478 -.000991420021395475 18 104 5
11 0 106 101 107 102 ?1 29 105 657 0 107 108 102 .016 .001008579978604526 -.0095
 18 107 635 0 109 104 110 105 ?1 29 108 745 0 110 0 105 -.016 .00100857997860452
2 -.0095 18 110 723 0 111 107 0 108 ?1 17 111 0 112 111 111 110 0 0 0 0 ?15 255
 112 731 0 111 113 114 14 255 113 728 115 ?116 117 112 4 118 -0 0 116 117 23 15
 114 732 0 119 113 0 17 119 0 114 119 119 0 120 121 0 0 +17 120 0 122 120 120 0
 119 121 0 0 -16 121 722 0 ?119 123 124 125 0 0 1 16 123 678 0 ?126 127 121 128
 0 0 1 16 124 721 0 ?129 121 0 130 0 0 1 31 255 125 743 0 121 130 128 0 +-.016 .
002 -.0095 0 1 0 0 0 1 .00165 31 130 744 0 124 0 125 0 +-.016 .015 -.0095 0 1 0
 0 0 1 .00165 31 128 706 0 123 125 131 0 +-.016 .015 .0095 0 1 0 0 0 1 .00165 31
 131 705 0 127 128 132 0 +-.016 .002 .0095 0 1 0 0 0 1 .00165 16 127 679 0 ?133
 16 123 131 0 0 1 31 132 656 0 134 131 135 0 +.016 .015 -.0095 0 1 0 0 0 1 .0016
5 16 134 633 0 ?136 137 16 132 0 0 1 31 135 655 0 137 132 138 0 +.016 .002 -.009
5 0 1 0 0 0 1 .00165 16 137 634 0 ?139 140 134 135 0 0 1 31 138 618 0 140 135 14
1 0 +.016 .015 .0095 0 1 0 0 0 1 .00165 16 140 590 0 ?142 143 137 138 0 0 1 31 1
41 617 0 143 138 144 0 +.016 .002 .0095 0 1 0 0 0 1 .00165 16 143 591 0 ?145 146
 140 141 0 0 1 31 144 532 0 147 141 148 0 +-.01131370849898474 .0113137084989847
8 .015 0 0 1 1 0 0 .00165 16 147 509 0 ?149 150 146 144 0 0 1 31 148 531 0 150 1
44 151 0 +-.01131370849898474 .01131370849898478 0 0 0 1 1 0 0 .00165 16 150 510
 0 ?152 153 147 148 0 0 1 31 151 493 0 153 148 154 0 +-.016 0 .015 0 0 1 1 0 0 .
00165 16 153 470 0 ?155 156 150 151 0 0 1 31 154 492 0 156 151 157 0 +-.016 0 0
 0 0 1 1 0 0 .00165 16 156 471 0 ?158 159 153 154 0 0 1 31 157 454 0 159 154 160
 0 +-.01131370849898474 -.01131370849898478 .015 0 0 1 1 0 0 .00165 16 159 431 0
 ?161 162 156 157 0 0 1 31 160 453 0 162 157 163 0 +-.01131370849898474 -.011313
70849898478 0 0 0 1 1 0 0 .00165 16 162 432 0 ?164 165 159 160 0 0 1 31 163 415
 0 165 160 166 0 +.01131370849898474 -.01131370849898478 .015 0 0 1 1 0 0 .00165
 16 165 392 0 ?167 168 162 163 0 0 1 31 166 414 0 168 163 169 0 +.01131370849898
474 -.01131370849898478 0 0 0 1 1 0 0 .00165 16 168 393 0 ?170 171 165 166 0 0 1
 31 169 376 0 171 166 172 0 +.016 0 .015 0 0 1 1 0 0 .00165 16 171 353 0 ?173 17
4 168 169 0 0 1 31 172 375 0 174 169 175 0 +.016 0 0 0 0 1 1 0 0 .00165 16 174 3
54 0 ?176 177 171 172 0 0 1 31 175 337 0 177 172 178 0 +.01131370849898474 .0113
1370849898478 .015 0 0 1 1 0 0 .00165 16 177 314 0 ?179 180 174 175 0 0 1 31 178
 336 0 180 175 181 0 +.01131370849898474 .01131370849898478 0 0 0 1 1 0 0 .00165
 16 180 315 0 ?182 183 177 178 0 0 1 30 255 181 261 0 184 178 185 0 +.00625 -.01
5 -.015 0 1 0 16 184 197 0 ?186 187 188 181 0 0 1 31 185 260 0 187 181 189 0 +0
 0 -.015 0 0 1 1 0 0 .01125 16 187 193 0 ?190 191 184 185 0 0 1 30 189 259 0 191
 185 192 0 +-.00625 -.015 -.015 0 -1 0 16 191 189 0 ?193 33 187 189 0 0 1 30 192
 257 0 183 189 194 0 +.00625 -.015 .015 0 1 0 16 183 204 0 ?30 195 180 192 0 0 1
 31 194 256 0 195 192 196 0 +0 0 .015 0 0 1 1 0 0 .01125 16 195 207 0 ?197 188 1
83 194 0 0 1 30 196 255 0 188 194 198 0 +-.00625 -.015 .015 0 -1 0 16 188 210 0
 ?72 184 195 196 0 0 1 30 198 254 0 199 196 200 0 +-.00625 -.015 -.015 0 0 1 16
 199 192 0 ?201 202 203 198 0 0 1 30 200 253 0 203 198 204 0 +-.00625 -.00935414
346693485 -.015 0 0 1 16 203 196 0 ?76 199 205 200 0 0 1 30 204 252 0 205 200 20
6 0 +.00625 -.00935414346693486 -.015 0 0 1 16 205 200 0 ?79 203 33 204 0 0 1 30
 206 251 0 33 204 207 0 +.00625 -.015 -.015 0 0 1 16 33 188 0 ?27 205 191 206 0
 0 1 30 207 5 0 208 206 209 0 +-.02 -.015 -.015 0 -1 0 16 208 4 0 ?39 210 211 20
7 0 0 1 30 209 8 0 212 207 213 0 +.02 -.015 -.015 1 433680868994202e-31 0 16 212
 7 0 ?64 214 210 209 210 210 1 30 213 11 0 214 209 215 0 +.02 -.015 -.015 0 1 0
 16 214 10 0 ?216 217 212 213 0 0 1 30 215 14 0 217 213 218 0 +.02 .015 -.015 -1
 -867361737988404e-31 0 16 217 13 0 ?60 66 214 215 0 0 1 30 218 69 0 202 215 219
 0 +-.02 -.015 .015 0 -1 0 16 202 57 0 ?220 221 199 218 0 0 1 30 219 68 0 222 21
8 223 0 +.02 -.015 .015 1 433680868994202e-31 0 16 222 53 0 ?224 225 221 219 221
 221 1 30 223 67 0 225 219 226 0 +.02 -.015 .015 0 1 0 16 225 49 0 ?227 211 222
 223 0 0 1 30 226 66 0 211 223 26 0 +.02 .015 .015 -1 -867361737988404e-31 0 16
 211 45 0 ?228 208 225 226 0 0 1 30 26 90 0 9 226 229 0 +-.02 .015 -.015 0 0 1 3
0 229 91 0 25 26 230 0 +.02 .015 -.015 0 0 1 16 25 75 0 ?55 9 231 229 0 0 1 30 2
30 92 0 231 229 232 0 +.02 -.015 -.015 0 0 1 16 231 76 0 ?233 25 66 230 0 0 1 30
 232 93 0 66 230 17 0 +-.02 -.015 -.015 0 0 1 16 66 77 0 ?49 231 217 232 0 0 1 3
8 17 573 0 146 232 6 0 +234 235 236 237 237 16 146 589 0 ?238 147 143 17 0 0 1 5
1 255 234 374 0 239 240 241 242 +.016 0 .015 0 0 1 .00165 1 0 0 52 255 235 615 0
 243 244 245 246 +.016 .002 .0095 0 1 0 .00165 .857167300702111 .515038074910056
 0 0 1 40 255 21 236 0 1 21 799391268826258e-19 .397306370934384 ??.015658632036
37945 .001614301060339595 .00855146866958653 .01547024976728225 .001562646694213
22 .0087452328651347 .01529968405756285 .0014940072224619 .00909721178932015 .01
52406188374547 .001464868680111426 .00949595721306116 .01530399041113145 .001496
01826599947 .00991673793880079 .0154968654805256 .001571418357828785 .0102901270
15225 .0156764265600048 .001617961751380315 .0104611787080858 .0158520646130433
 .001643354837302635 .0105460336774807 .0160492117181161 .001649265959995555 .01
05651443014132 .016211893355516 .00163633774199836 .0105230512134358 .0163967502
1803125 .00160158960551452 .01040367444417686 .01659171611762015 .00154025064069
0845 .01015789743543376 .01673377450312545 .001477861623618046 .0097675082785512
4 .0167509383089497 .001469214639238228 .0093457104590747 .01664130556517855 .00
1520272071726905 .00893968987522142 .01645249814732685 .00158674050388406 .00865
08156256439 .0162730406248303 .00162725192185853 .00850721927454202 .01610083018
1661 .00164691629248915 .00844242572119593 .0159148282846166 .001647800284894575
 .00843957368770723 .0157573457441386 .00163205971462822 .00849112682284767 .015
65863203637945 .001614301060339595 .00855146866958653 41 3 CI8 term_use0 0 1 cCZ
1 237 H?.01565863203637945 .001614301060339595 .00855146866958653 14 243 593 247
 ?248 249 250 4 235 -0 0 248 249 23 51 244 616 0 248 251 235 0 +.016 .015 .0095
 0 1 0 .00165 0 0 1 51 245 530 0 249 235 252 0 +-.01131370849898474 .01131370849
898478 .015 0 0 1 .00165 1 0 0 141 255 246 17 246 246 235 14 249 521 253 ?243 25
4 255 4 245 -0 0 243 254 23 52 252 529 0 254 245 18 0 +-.01131370849898474 .0113
1370849898478 0 0 0 1 .00165 .857167300702111 .515038074910056 1 0 0 14 254 516
 256 ?249 257 258 4 252 -0 0 249 257 23 51 18 491 0 257 252 259 260 +-.016 0 .01
5 0 0 1 .00165 1 0 0 14 257 482 261 ?254 262 263 4 18 -0 0 254 262 23 52 259 490
 0 262 18 264 0 +-.016 0 0 0 0 1 .00165 .857167300702111 .515038074910056 1 0 0
 141 260 6 260 260 18 14 262 477 265 ?257 266 267 4 259 -0 0 257 266 23 51 264 4
52 0 266 259 268 0 +-.01131370849898474 -.01131370849898478 .015 0 0 1 .00165 1
 0 0 14 266 443 269 ?262 270 271 4 264 -0 0 262 270 23 52 268 451 0 270 264 272
 0 +-.01131370849898474 -.01131370849898478 0 0 0 1 .00165 .857167300702111 .515
038074910056 1 0 0 14 270 438 273 ?266 274 275 4 268 -0 0 266 274 23 51 272 413
 0 274 268 240 0 +.01131370849898474 -.01131370849898478 .015 0 0 1 .00165 1 0 0
 14 274 404 276 ?270 277 278 4 272 -0 0 270 277 23 52 240 412 0 277 272 234 0 +.
01131370849898474 -.01131370849898478 0 0 0 1 .00165 .857167300702111 .515038074
910056 1 0 0 14 277 399 279 ?274 239 280 4 240 -0 0 274 239 23 81 255 1 279 902
 281 277 282 0 276 283 284 14 239 365 283 ?277 285 286 4 234 -0 0 277 285 23 15
 280 402 0 97 277 287 13 23 29 0 0 0 0 0 0 8 12 14 12 177 288 ?14 0 63 4 15 +289
 289 14 0 23 81 1 288 904 281 12 290 0 283 291 292 14 14 85 291 ?293 12 38 4 5 +
0 0 293 12 23 15 63 180 0 201 12 0 50 15 88 0 289 294 5 0 +.02 -.015 -.015 43368
0868994202e-31 -1 0 1 433680868994202e-31 0 14 289 83 295 ?296 297 298 4 15 +12
 12 296 297 23 81 1 295 906 281 289 299 0 291 300 301 14 296 1 300 ?302 289 303
 4 304 -0 0 302 289 23 14 297 81 305 ?289 293 306 4 294 +0 0 289 293 23 15 298 1
75 0 32 289 0 17 32 0 298 68 307 73 27 33 0 308 -17 68 0 298 233 32 43 308 210 0
 309 +17 307 0 298 32 233 10 53 221 0 0 -17 308 0 303 186 310 73 68 210 0 0 -15
 303 3 0 190 296 0 17 186 0 303 190 308 86 31 184 0 0 +17 310 0 303 308 311 43 2
16 214 0 0 -16 210 159 0 ?68 212 208 209 212 212 1 17 311 0 303 310 41 36 60 217
 0 0 -17 216 0 306 55 309 36 310 214 0 311 +15 306 80 0 312 297 0 17 55 0 306 31
2 216 54 42 25 0 227 +17 309 0 306 216 312 43 233 231 0 310 -17 312 0 306 309 55
 50 227 225 0 0 -17 233 0 298 307 68 50 309 231 0 312 +17 227 0 313 228 53 54 31
2 225 0 59 +15 313 151 0 314 302 0 17 228 0 313 220 227 56 59 211 0 0 +17 53 0 3
13 227 34 50 307 221 0 233 +17 59 0 58 42 24 54 228 211 0 0 -15 58 78 0 59 293 0
 17 42 0 58 60 59 36 55 25 0 216 -17 60 0 58 24 42 28 311 217 0 0 +14 293 79 315
 ?297 14 316 4 317 +0 0 297 14 23 81 1 315 909 281 293 318 0 305 319 320 15 316
 711 0 321 293 322 50 317 86 0 293 323 294 0 +.02 .015 -.015 -867361737988404e-3
1 1 0 -1 -867361737988404e-31 0 50 323 65 0 302 304 317 0 +0 0 .015 0 0 1 1 0 0
 50 294 87 0 297 317 15 0 +.02 -.015 -.015 1 0 0 0 0 -1 14 302 43 319 ?324 296 3
25 4 323 +0 0 324 296 23 50 304 2 0 296 326 323 0 +0 0 -.015 0 0 1 1 0 0 50 326
 246 0 327 328 304 0 +.00625 -.015 -.015 1 0 0 0 0 -1 14 327 233 329 ?330 331 29
 4 326 -0 0 330 331 23 51 328 247 0 331 332 326 0 +0 0 -.015 0 0 1 .01125 1 0 0
 14 331 229 333 ?327 324 334 4 328 -0 0 327 324 23 50 332 248 0 324 335 328 0 +-
.00625 -.015 -.015 -1 0 0 0 0 1 14 324 225 336 ?331 302 337 4 332 -0 0 331 302 2
3 52 335 334 0 330 338 332 0 +.01131370849898474 .01131370849898478 0 0 0 1 .001
65 .857167300702111 .515038074910056 1 0 0 14 330 321 339 ?340 327 341 4 335 -0
 0 340 327 23 51 338 335 0 340 241 335 0 +.01131370849898474 .01131370849898478
 .015 0 0 1 .00165 1 0 0 14 340 326 342 ?285 330 343 4 338 -0 0 285 330 23 52 24
1 373 0 285 234 338 0 +.016 0 0 0 0 1 .00165 .857167300702111 .515038074910056 1
 0 0 14 285 360 344 ?239 340 345 4 241 -0 0 239 340 23 81 1 344 916 281 285 346
 0 342 347 348 15 345 363 0 94 285 349 17 94 0 345 94 94 92 0 0 0 0 ?15 349 364
 0 176 285 0 17 176 0 349 176 176 0 350 174 0 0 +17 350 0 351 350 350 0 176 174
 0 0 -15 351 368 0 350 239 352 15 352 369 0 173 239 0 17 173 0 352 173 173 0 353
 171 0 0 +17 353 0 354 353 353 0 173 171 0 0 -15 354 341 0 353 302 355 15 355 30
2 0 356 302 313 17 356 0 355 356 356 0 179 177 0 0 -17 179 0 357 179 179 0 356 1
77 0 0 +15 357 330 0 179 340 0 80 255 1 281 358 359 9000 1 1 1 1 1 1 1 1 0 FFFFT
FTFFFFFFF1 81 1 346 813 360 285 0 344 361 362 363 81 1 342 915 281 340 361 0 339
 344 364 81 1 347 917 281 248 365 0 344 366 367 82 255 1 348 120717432 14 248 60
7 347 ?368 243 369 4 244 -0 0 368 243 23 81 1 365 824 360 248 0 347 370 371 372
 81 1 366 918 281 368 371 0 347 373 374 82 1 367 774701182 14 368 640 366 ?375 2
48 376 4 251 -0 0 375 248 23 81 1 371 825 360 368 0 366 365 377 378 81 1 373 919
 281 375 377 0 366 379 380 82 1 374 759365758 14 375 645 373 ?381 368 382 4 383
 -0 0 381 368 23 81 1 377 826 360 375 0 373 371 384 385 81 1 379 920 281 381 384
 0 373 386 387 82 1 380 758775934 14 381 681 379 ?117 375 388 4 19 -0 0 117 375
 23 81 1 384 827 360 381 0 379 377 389 390 81 1 386 921 281 117 389 0 379 391 39
2 82 1 387 784138366 14 117 695 386 ?113 381 393 4 394 -0 0 113 381 23 81 1 389
 828 360 117 0 386 384 395 396 81 1 391 922 281 116 397 0 386 0 398 82 1 392 742
981758 14 116 733 391 ?0 113 122 4 399 -0 0 0 113 23 81 1 397 830 360 116 0 391
 395 0 400 82 1 398 726990974 80 1 360 0 401 8001 0 0 0 0 3 5 0 0 0 FFFFTFTFFFFF
FF2 81 1 395 829 360 113 0 115 389 397 402 83 255 3 400 .894117647058824 .913725
490196078 .929411764705882 81 1 115 893 281 113 395 0 0 247 403 83 3 402 .894117
647058824 .913725490196078 .929411764705882 81 1 247 894 281 243 370 0 115 253 4
04 82 1 403 727580798 81 1 370 823 360 243 0 247 405 365 406 81 1 253 895 281 24
9 405 0 247 256 407 82 1 404 780075134 81 1 405 822 360 249 0 253 408 370 409 81
 1 256 896 281 254 408 0 253 261 410 82 1 407 56754296 81 1 408 821 360 254 0 25
6 411 405 412 81 1 261 897 281 257 411 0 256 265 413 82 1 410 57344120 81 1 411
 820 360 257 0 261 414 408 415 81 1 265 898 281 262 414 0 261 269 416 82 1 413 7
2614014 81 1 414 819 360 262 0 265 417 411 418 81 1 269 899 281 266 417 0 265 27
3 419 82 1 416 73203832 81 1 417 818 360 266 0 269 420 414 421 81 1 273 900 281
 270 420 0 269 276 422 82 1 419 88473720 81 1 420 817 360 270 0 273 423 417 424
 81 1 276 901 281 274 423 0 273 279 425 82 1 422 89063544 81 1 423 816 360 274 0
 276 282 420 426 82 1 425 104333432 81 1 282 815 360 277 0 279 362 423 427 83 3
 426 .894117647058824 .913725490196078 .929411764705882 81 1 362 814 360 239 0 2
83 346 282 428 83 3 427 .894117647058824 .913725490196078 .929411764705882 81 1
 283 903 281 239 362 0 279 288 429 83 3 428 .894117647058824 .913725490196078 .9
29411764705882 82 1 429 120127614 83 3 424 .894117647058824 .913725490196078 .92
9411764705882 83 3 421 .894117647058824 .913725490196078 .929411764705882 83 3 4
18 .894117647058824 .913725490196078 .929411764705882 83 3 415 .894117647058824
 .913725490196078 .929411764705882 83 3 412 .894117647058824 .913725490196078 .9
29411764705882 83 3 409 .894117647058824 .913725490196078 .929411764705882 83 3
 406 .894117647058824 .913725490196078 .929411764705882 79 255 15 401 SDL/TYSA_C
OLOUR15 122 736 0 120 116 430 51 399 742 0 116 0 118 0 +-.016 .015 -.0095 0 1 0
 .00165 0 0 1 52 118 741 0 113 399 394 0 +-.016 .002 -.0095 0 1 0 .00165 .857167
300702111 .515038074910056 0 0 1 51 394 704 0 117 118 19 0 +-.016 .015 .0095 0 1
 0 .00165 0 0 1 52 19 703 0 381 394 383 431 +-.016 .002 .0095 0 1 0 .00165 .8571
67300702111 .515038074910056 0 0 1 51 383 654 0 375 19 251 0 +.016 .015 -.0095 0
 1 0 .00165 0 0 1 141 431 6 431 431 19 52 251 653 0 368 383 244 0 +.016 .002 -.0
095 0 1 0 .00165 .857167300702111 .515038074910056 0 0 1 15 430 737 0 129 116 0
 17 129 0 430 129 129 0 321 124 0 0 +17 321 0 316 321 321 0 129 124 0 0 -83 3 39
6 .894117647058824 .913725490196078 .929411764705882 15 393 698 0 432 117 433 17
 432 0 393 432 432 0 133 127 0 0 -15 433 699 0 126 117 0 17 126 0 433 126 126 0
 434 123 0 0 +17 434 0 322 434 434 0 126 123 0 0 -15 322 667 0 434 293 435 15 43
5 623 0 436 293 437 17 436 0 435 436 436 0 136 134 0 0 -15 437 579 0 438 293 58
 17 438 0 437 438 438 0 142 140 0 0 -17 142 0 439 142 142 0 438 140 0 0 +15 439
 611 0 142 248 0 17 136 0 440 136 136 0 436 134 0 0 +15 440 649 0 136 375 0 17 1
33 0 388 133 133 0 432 127 0 0 +15 388 684 0 133 381 441 15 441 685 0 442 381 0
 17 442 0 441 442 442 0 443 16 0 0 -17 443 0 263 443 443 0 442 16 0 0 +16 16 677
 0 ?443 134 127 6 0 0 1 15 263 659 0 443 257 444 15 444 485 0 445 257 446 17 445
 0 444 445 445 0 158 156 0 0 -15 446 486 0 155 257 0 17 155 0 446 155 155 0 447
 153 0 0 +17 447 0 448 447 447 0 155 153 0 0 -15 448 458 0 447 302 449 15 449 41
9 0 450 302 451 17 450 0 449 450 450 0 161 159 0 0 -15 451 380 0 452 302 354 17
 452 0 451 452 452 0 167 165 0 0 -17 167 0 453 167 167 0 452 165 0 0 +15 453 408
 0 167 274 0 17 161 0 454 161 161 0 450 159 0 0 +15 454 447 0 161 266 0 17 158 0
 455 158 158 0 445 156 0 0 +15 455 481 0 158 262 0 83 3 390 .894117647058824 .91
3725490196078 .929411764705882 83 3 385 .894117647058824 .913725490196078 .92941
1764705882 15 382 648 0 456 375 440 17 456 0 382 456 456 0 139 137 0 0 -17 139 0
 457 139 139 0 456 137 0 0 +15 457 644 0 139 368 0 83 3 378 .894117647058824 .91
3725490196078 .929411764705882 15 376 643 0 109 368 457 17 109 0 376 109 109 107
 0 0 0 0 ?83 3 372 .894117647058824 .913725490196078 .929411764705882 15 369 610
 0 458 248 439 17 458 0 369 458 458 0 145 143 0 0 -17 145 0 250 145 145 0 458 14
3 0 0 +15 250 596 0 145 243 459 15 459 597 0 460 243 0 17 460 0 459 460 460 0 23
8 146 0 0 -17 238 0 286 238 238 0 460 146 0 0 +15 286 571 0 238 239 351 81 1 361
 812 360 340 0 342 461 346 462 81 1 339 914 281 330 461 0 336 342 463 82 1 364 1
35987320 81 1 461 811 360 330 0 339 464 361 465 81 1 336 913 281 324 466 0 333 3
39 467 82 1 463 136577144 81 1 466 808 360 324 0 336 468 469 470 81 1 333 912 28
1 331 469 0 329 336 471 82 1 467 -243400598 81 1 469 809 360 331 0 333 466 464 4
72 81 1 329 911 281 327 464 0 319 333 473 82 1 471 -243269526 81 1 464 810 360 3
27 0 329 469 461 474 81 1 319 910 281 302 468 0 315 329 475 82 1 473 -243138454
 81 1 468 807 360 302 0 319 476 466 477 82 1 475 -718208904 81 1 476 806 360 296
 0 300 299 468 478 83 3 477 .894117647058824 .913725490196078 .929411764705882 8
1 1 300 907 281 296 476 0 295 305 479 81 1 299 805 360 289 0 295 480 476 481 83
 3 478 .894117647058824 .913725490196078 .929411764705882 81 1 480 804 360 297 0
 305 318 299 482 83 3 481 .894117647058824 .913725490196078 .929411764705882 81
 1 305 908 281 297 480 0 300 315 483 81 1 318 803 360 293 0 315 484 480 485 83 3
 482 .894117647058824 .913725490196078 .929411764705882 81 1 484 802 360 14 0 29
1 290 318 486 83 3 485 .894117647058824 .913725490196078 .929411764705882 81 1 2
91 905 281 14 484 0 288 295 487 81 1 290 801 360 12 0 288 0 484 488 83 3 486 .89
4117647058824 .913725490196078 .929411764705882 83 3 488 .894117647058824 .91372
5490196078 .929411764705882 82 1 487 -716898201 82 1 483 -717160345 82 1 479 -72
3845014 83 3 474 .894117647058824 .913725490196078 .929411764705882 83 3 472 .89
4117647058824 .913725490196078 .929411764705882 83 3 470 .894117647058824 .91372
5490196078 .929411764705882 83 3 465 .894117647058824 .913725490196078 .92941176
4705882 83 3 462 .894117647058824 .913725490196078 .929411764705882 83 3 363 .89
4117647058824 .913725490196078 .929411764705882 79 14 359 SWEntUnchanged15 343 3
29 0 489 340 357 17 489 0 343 489 489 0 182 180 0 0 -17 182 0 490 182 182 0 489
 180 0 0 +15 490 325 0 182 330 0 15 341 324 0 91 330 490 17 91 0 341 91 91 80 0
 0 0 0 ?15 337 228 0 72 324 0 17 72 0 337 82 76 70 314 188 0 201 +17 82 0 337 49
1 72 51 201 199 0 193 -17 76 0 337 72 491 74 85 203 0 197 +17 314 0 313 492 224
 74 72 188 0 0 -17 201 0 63 65 64 70 82 199 0 224 +17 65 0 63 61 201 47 224 222
 0 220 -17 64 0 63 201 61 51 67 212 0 0 +17 224 0 313 314 220 70 65 222 0 0 +17
 220 0 313 224 228 47 40 202 0 0 +17 40 0 38 35 49 56 220 202 0 228 -15 38 84 0
 40 14 0 17 49 0 38 40 39 47 61 66 0 65 +17 39 0 38 49 35 57 41 208 0 0 +17 41 0
 303 311 67 28 39 208 0 60 -17 67 0 303 41 193 57 64 212 0 39 -17 193 0 303 67 1
90 51 491 191 0 64 +17 190 0 303 193 186 83 493 187 0 0 +17 491 0 337 76 82 83 1
93 191 0 190 -17 493 0 334 79 85 86 190 187 0 186 -15 334 232 0 197 331 0 17 79
 0 334 197 493 77 88 205 0 30 +17 85 0 334 493 197 83 76 203 0 491 -17 197 0 334
 85 79 74 492 195 0 314 +17 492 0 313 34 314 77 197 195 0 0 -17 34 0 313 53 492
 10 30 183 0 307 -17 30 0 29 88 27 77 34 183 0 492 +15 29 236 0 30 327 0 17 88 0
 29 31 30 86 79 205 0 493 -17 31 0 29 27 88 73 186 184 0 32 -15 325 497 0 494 30
2 448 17 494 0 325 494 494 0 149 147 0 0 -17 149 0 495 149 149 0 494 147 0 0 +15
 495 525 0 149 249 0 82 1 320 -717291394 16 221 140 0 ?53 222 202 219 222 222 1
 82 1 301 -717029270 82 1 292 -236322710 17 97 0 280 97 97 95 0 0 0 0 ?15 287 40
3 0 170 277 0 17 170 0 287 170 170 0 496 168 0 0 +17 496 0 278 496 496 0 170 168
 0 0 -15 278 407 0 496 274 453 82 1 284 104923256 15 275 441 0 100 270 497 17 10
0 0 275 100 100 98 0 0 0 0 ?15 497 442 0 164 270 0 17 164 0 497 164 164 0 498 16
2 0 0 +17 498 0 271 498 498 0 164 162 0 0 -15 271 446 0 498 266 454 15 267 480 0
 103 262 455 17 103 0 267 103 103 101 0 0 0 0 ?15 258 519 0 106 254 499 17 106 0
 258 106 106 104 0 0 0 0 ?15 499 520 0 152 254 0 17 152 0 499 152 152 0 500 150
 0 0 +17 500 0 255 500 500 0 152 150 0 0 -15 255 524 0 500 249 495 141 242 17 24
2 242 234 19 13 95 0 1 0 8 4 S0 40 21 20 0 1 21 799391268826292e-19 .39730637093
439 ??-.0163413679636206 .001614301060339595 .00855146866958653 -.01652975023271
775 .001562646694213215 .0087452328651347 -.0167003159424372 .001494007222461898
 .00909721178932016 -.0167593811625453 .001464868680111426 .00949595721306118 -.
01669600958886855 .00149601826599947 .00991673793880081 -.0165031345194744 .0015
7141835782879 .010290127015225 -.0163235734399952 .001617961751380315 .010461178
7080858 -.01614793538695665 .001643354837302635 .0105460336774807 -.015950788281
8839 .001649265959995555 .0105651443014132 -.015788106644484 .00163633774199836
 .0105230512134358 -.01560324978196875 .001601589605514515 .01040367444417686 -.
01540828388237985 .001540250640690835 .01015789743543374 -.01526622549687455 .00
1477861623618044 .00976750827855122 -.0152490616910503 .001469214639238228 .0093
4571045907466 -.01535869443482145 .00152027207172691 .00893968987522139 -.015547
5018526732 .00158674050388406 .00865081562564388 -.0157269593751697 .00162725192
185853 .008507219274542 -.015899169818339 .00164691629248915 .00844242572119592
 -.0160851717153834 .001647800284894575 .00843957368770723 -.0162426542558614 .0
0163205971462822 .00849112682284766 -.01634136796362055 .001614301060339595 .008
55146866958653 41 1 21 H?-.0163413679636206 .001614301060339595 .008551468669586
53 74 4 CI16 index_map_offset0 0 1 dCCZ20 11 2 0 0 391 397 0 0 0 0 0 0 0 0 0 0 0
 0 0 0 0 0 0 0 1 0 
